<svg width="679" height="336" viewBox="0 0 679 336" fill="none" xmlns="http://www.w3.org/2000/svg">
<path opacity="0.25" d="M294.83 82.3968C288.63 72.7696 278.297 66.8098 268.424 61.0793C238.803 44.3462 209.182 27.3839 179.791 10.6508C171.295 5.83719 162.34 0.794336 152.466 0.335895C140.756 -0.122546 129.734 5.83719 119.401 11.7969C88.403 29.4469 57.6342 47.3261 26.6357 65.2053C18.5991 69.7897 10.3328 74.6033 5.74045 82.3968C0.918473 90.4196 0.688853 100.505 0.688853 110.133C0.459235 145.432 0.229618 180.503 0 215.803C0 229.098 1.64236e-06 243.31 7.34778 254.541C13.3179 263.71 23.1914 269.441 32.8354 274.942C62.9154 291.904 92.9953 309.096 123.305 326.058C131.571 330.872 140.526 335.686 150.17 335.686C160.273 335.915 169.688 330.643 178.413 325.6C209.412 307.95 240.64 290.3 271.638 272.65C281.512 267.149 291.845 260.96 296.896 251.103C301.489 242.622 301.489 232.536 301.489 223.138C301.718 189.214 301.948 155.518 301.948 121.594C302.177 108.07 301.948 93.6286 294.83 82.3968ZM66.13 279.068C55.338 272.65 44.3163 266.232 33.5242 259.584C27.0949 255.688 20.2064 251.562 16.5325 244.914C12.8586 238.267 12.629 230.244 12.629 222.68C12.629 186.463 12.629 150.475 12.629 114.259C12.629 106.923 12.629 99.3592 15.614 92.941C19.9768 83.0845 29.8504 77.354 39.2647 72.0819C70.0335 54.4319 100.802 36.7819 131.801 19.3612C137.541 16.1521 143.741 12.7138 150.4 12.4846C157.288 12.2554 163.718 15.6937 169.917 18.9028C179.332 23.9456 188.746 28.9885 198.16 34.0313C160.733 54.4319 123.535 75.291 86.566 96.6085C77.8405 101.651 68.8855 106.923 63.8339 115.634C59.4711 122.74 58.5526 131.45 57.8638 139.931C56.7157 154.601 56.2565 169.271 56.9453 183.942C57.8638 206.405 64.0635 233.453 90.0103 235.516C97.3581 236.204 104.935 234.599 111.594 231.39C142.363 217.408 184.843 197.466 187.139 161.249C188.287 144.057 181.628 121.823 196.783 113.112C204.131 108.757 213.545 110.362 220.204 116.092C232.144 126.636 233.062 142.453 233.751 157.123C234.899 183.025 233.292 214.199 210.56 227.035C179.332 244.685 148.333 262.335 117.105 280.214C109.987 284.34 102.41 288.466 94.1434 288.695C83.8106 289.383 74.6259 284.111 66.13 279.068ZM127.668 205.947C127.668 195.861 127.897 185.546 128.127 175.46C128.357 168.813 128.586 161.707 132.03 155.747C140.067 141.307 160.503 134.888 175.888 128.47C176.806 147.037 177.265 161.478 168.769 176.836C160.273 191.964 145.808 197.236 127.668 205.947ZM282.89 246.748C278.068 253.854 270.261 258.209 262.913 262.564C234.67 278.839 206.427 295.113 178.184 311.388C167.621 317.577 155.911 323.766 143.741 321.703C128.816 319.182 118.483 304.512 103.787 301.302C136.164 283.423 168.769 265.315 201.146 247.436C211.478 241.705 222.041 235.745 229.618 227.035C246.61 207.551 246.151 178.669 244.543 152.997C243.166 129.616 238.114 100.734 210.789 98.9007C202.523 98.4423 194.027 100.734 186.909 105.09C171.525 114.488 155.911 123.886 140.526 133.055C131.112 138.785 121.009 144.974 116.416 155.06C110.906 166.75 114.12 180.274 114.579 193.34C115.039 207.551 109.069 224.743 93.6842 224.972C87.2549 225.201 81.2848 221.763 77.1517 216.72C68.6558 206.176 68.8854 192.652 69.1151 180.045C69.3447 167.896 69.5743 155.518 70.0335 143.37C70.2632 136.493 70.4928 129.387 73.937 123.427C77.6109 117.238 84.0402 113.342 90.2399 109.674C121.468 91.5657 152.466 73.228 183.695 55.1196C190.583 50.9936 197.931 46.8677 206.197 46.4092C216.53 45.7216 225.944 51.2228 234.67 56.4949C245.691 63.1423 256.943 69.7897 267.964 76.4371C274.394 80.1047 280.823 84.2306 284.727 90.4196C289.089 97.5254 289.319 106.465 289.319 114.946C289.548 147.266 289.548 179.586 289.778 211.677C290.008 223.826 289.778 236.891 282.89 246.748Z" fill="#314AEB"/>
<!-- <path d="M265.491 195.975C278.78 195.975 289.073 188.14 291.224 176.31H281.007C279.164 182.532 273.326 186.527 265.721 186.527C255.428 186.527 248.822 178.845 248.822 166.939C248.822 154.956 255.351 147.428 265.721 147.428C273.172 147.428 278.78 151.268 280.7 157.798H291.07C289.15 145.738 279.24 137.979 265.951 137.979C249.513 137.979 238.528 149.579 238.528 167.016C238.528 184.606 249.129 195.975 265.491 195.975Z" fill="white"/> -->
<!-- <path d="M296.124 176.003C296.124 187.833 304.65 195.975 316.403 195.975C328.156 195.975 336.682 187.833 336.682 176.003C336.682 164.173 328.156 156.031 316.403 156.031C304.65 156.031 296.124 164.173 296.124 176.003ZM305.495 176.003C305.495 169.09 309.95 164.404 316.403 164.404C322.855 164.404 327.311 169.09 327.311 176.003C327.311 182.916 322.855 187.602 316.403 187.602C309.95 187.602 305.495 182.916 305.495 176.003Z" fill="white"/>
<path d="M348.489 149.502C351.562 149.502 354.096 146.967 354.096 143.817C354.096 140.668 351.562 138.21 348.489 138.21C345.263 138.21 342.728 140.668 342.728 143.817C342.728 146.967 345.263 149.502 348.489 149.502ZM343.803 195.053H353.175V157.106H343.803V195.053Z" fill="white"/>
<path d="M371.921 195.053V174.62C371.921 168.475 375.455 164.481 381.216 164.481C386.055 164.481 389.205 167.553 389.205 173.929V195.053H398.576V171.701C398.576 161.869 393.66 155.954 384.135 155.954C378.988 155.954 374.379 158.182 371.998 162.023L371.23 157.106H362.55V195.053H371.921Z" fill="white"/>
<path d="M432.595 195.975C445.884 195.975 456.178 188.14 458.328 176.31H448.112C446.268 182.532 440.43 186.527 432.826 186.527C422.532 186.527 415.926 178.845 415.926 166.939C415.926 154.956 422.456 147.428 432.826 147.428C440.277 147.428 445.884 151.268 447.805 157.798H458.175C456.254 145.738 446.345 137.979 433.056 137.979C416.618 137.979 405.633 149.579 405.633 167.016C405.633 184.606 416.234 195.975 432.595 195.975Z" fill="white"/>
<path d="M474.452 195.053V174.313C474.452 168.629 477.909 164.481 483.824 164.481C488.586 164.481 491.736 167.553 491.736 173.929V195.053H501.107V171.701C501.107 161.869 496.191 155.954 486.82 155.954C481.366 155.954 476.91 158.335 474.529 162.023V137.903H465.081V195.053H474.452Z" fill="white"/>
<path d="M521.3 196.052C527.214 196.052 532.361 193.363 533.974 189.446L534.665 195.053H542.885V172.009C542.885 161.485 536.586 155.954 526.369 155.954C516.076 155.954 509.316 161.331 509.316 169.551H517.305C517.305 165.556 520.378 163.252 525.909 163.252C530.671 163.252 533.744 165.326 533.744 170.472V171.317L522.375 172.162C513.388 172.854 508.318 177.232 508.318 184.222C508.318 191.366 513.234 196.052 521.3 196.052ZM524.372 188.985C520.147 188.985 517.843 187.295 517.843 183.838C517.843 180.766 520.071 178.845 525.909 178.307L533.82 177.693V179.69C533.82 185.528 530.133 188.985 524.372 188.985Z" fill="white"/>
<path d="M561.155 195.053V174.62C561.155 168.475 564.689 164.481 570.45 164.481C575.289 164.481 578.439 167.553 578.439 173.929V195.053H587.81V171.701C587.81 161.869 582.894 155.954 573.369 155.954C568.222 155.954 563.613 158.182 561.232 162.023L560.464 157.106H551.784V195.053H561.155Z" fill="white"/>
<path d="M594.56 175.235C594.56 186.219 601.627 194.285 612.381 194.285C617.835 194.285 622.521 192.057 624.902 188.524V194.823C624.902 201.122 620.754 205.193 614.301 205.193C608.54 205.193 604.776 202.274 604.162 197.358H594.79C595.943 207.497 603.394 213.719 614.301 213.719C626.592 213.719 634.197 205.807 634.197 193.133V157.106H625.516L624.979 162.33C622.751 158.259 618.296 155.877 612.611 155.877C601.781 155.877 594.56 164.173 594.56 175.235ZM604.008 175.004C604.008 168.782 608.003 164.097 614.225 164.097C620.754 164.097 624.671 168.552 624.671 175.004C624.671 181.611 620.677 186.143 614.225 186.143C608.079 186.143 604.008 181.38 604.008 175.004Z" fill="white"/>
<path d="M660.564 196.052C670.473 196.052 677.387 191.059 679 182.763H670.32C669.244 186.373 665.864 188.37 660.718 188.37C654.496 188.37 650.962 184.99 650.271 178.307L678.846 178.231V175.389C678.846 163.559 671.626 155.954 660.257 155.954C649.119 155.954 641.36 164.173 641.36 176.08C641.36 187.833 649.272 196.052 660.564 196.052ZM660.334 163.636C665.941 163.636 669.551 167.092 669.551 172.316H650.501C651.423 166.632 654.803 163.636 660.334 163.636Z" fill="white"/> -->
<rect x="100" y="112" width="112.332" height="112.332" rx="27.9432" fill="white"/>
<path d="M189.223 148.385C187.795 146.168 185.416 144.795 183.142 143.476C176.32 139.622 169.498 135.716 162.73 131.862C160.773 130.753 158.711 129.592 156.437 129.486C153.74 129.381 151.202 130.753 148.822 132.126C141.683 136.191 134.597 140.308 127.458 144.426C125.608 145.482 123.704 146.59 122.646 148.385C121.536 150.233 121.483 152.555 121.483 154.772C121.43 162.902 121.377 170.979 121.324 179.108C121.324 182.17 121.324 185.443 123.016 188.03C124.391 190.141 126.665 191.461 128.886 192.728C135.814 196.634 142.741 200.593 149.721 204.5C151.625 205.608 153.687 206.717 155.908 206.717C158.235 206.77 160.403 205.555 162.412 204.394C169.551 200.329 176.743 196.265 183.882 192.2C186.156 190.933 188.536 189.508 189.699 187.238C190.756 185.284 190.756 182.962 190.756 180.797C190.809 172.985 190.862 165.225 190.862 157.412C190.915 154.297 190.862 150.972 189.223 148.385ZM136.554 193.678C134.068 192.2 131.53 190.722 129.045 189.191C127.564 188.293 125.978 187.343 125.132 185.812C124.286 184.281 124.233 182.434 124.233 180.692C124.233 172.351 124.233 164.063 124.233 155.723C124.233 154.033 124.233 152.291 124.92 150.813C125.925 148.543 128.199 147.224 130.367 146.009C137.453 141.945 144.539 137.88 151.678 133.868C153 133.129 154.427 132.337 155.961 132.284C157.547 132.231 159.028 133.023 160.456 133.762C162.624 134.924 164.792 136.085 166.96 137.246C158.341 141.945 149.774 146.748 141.26 151.658C139.251 152.819 137.188 154.033 136.025 156.039C135.02 157.676 134.809 159.682 134.65 161.635C134.386 165.013 134.28 168.392 134.439 171.77C134.65 176.944 136.078 183.173 142.053 183.648C143.746 183.806 145.491 183.437 147.024 182.698C154.11 179.478 163.893 174.885 164.422 166.544C164.686 162.585 163.153 157.465 166.643 155.459C168.335 154.456 170.503 154.825 172.037 156.145C174.787 158.573 174.998 162.216 175.157 165.594C175.421 171.559 175.051 178.739 169.816 181.695C162.624 185.76 155.485 189.824 148.293 193.942C146.654 194.892 144.909 195.842 143.005 195.895C140.626 196.053 138.51 194.839 136.554 193.678ZM150.726 176.838C150.726 174.516 150.779 172.14 150.832 169.817C150.884 168.286 150.937 166.65 151.731 165.277C153.581 161.952 158.288 160.474 161.831 158.996C162.042 163.271 162.148 166.597 160.191 170.134C158.235 173.618 154.903 174.832 150.726 176.838ZM186.473 186.235C185.363 187.871 183.565 188.874 181.873 189.877C175.368 193.625 168.864 197.373 162.36 201.121C159.927 202.547 157.23 203.972 154.427 203.497C150.99 202.916 148.611 199.538 145.226 198.798C152.682 194.681 160.191 190.511 167.648 186.393C170.027 185.073 172.46 183.701 174.205 181.695C178.118 177.208 178.012 170.556 177.642 164.644C177.325 159.259 176.161 152.608 169.869 152.186C167.965 152.08 166.008 152.608 164.369 153.611C160.826 155.775 157.23 157.94 153.687 160.051C151.519 161.371 149.192 162.796 148.135 165.119C146.866 167.811 147.606 170.926 147.712 173.935C147.817 177.208 146.443 181.167 142.9 181.22C141.419 181.273 140.044 180.481 139.092 179.319C137.136 176.891 137.188 173.776 137.241 170.873C137.294 168.075 137.347 165.225 137.453 162.427C137.506 160.843 137.559 159.207 138.352 157.834C139.198 156.409 140.679 155.511 142.106 154.667C149.298 150.496 156.437 146.273 163.629 142.103C165.215 141.153 166.907 140.203 168.811 140.097C171.191 139.939 173.359 141.206 175.368 142.42C177.906 143.951 180.498 145.482 183.036 147.012C184.517 147.857 185.997 148.807 186.896 150.233C187.901 151.869 187.954 153.928 187.954 155.881C188.007 163.324 188.007 170.767 188.06 178.158C188.112 180.956 188.06 183.965 186.473 186.235Z" fill="#485EED"/>
</svg>
