<svg width="47" height="47" viewBox="0 0 47 47" fill="none" xmlns="http://www.w3.org/2000/svg">
<rect x="0.518799" y="0.218071" width="46.1353" height="46.1353" rx="12.3047" fill="#8C9EFF"/>
<path d="M32.6666 16.5001C32.6666 16.5001 30.1825 14.5555 27.2499 14.3334L26.9856 14.8626C29.6365 15.5121 30.8531 16.4405 32.1249 17.5834C29.9328 16.4643 27.7699 15.4167 23.9999 15.4167C20.2299 15.4167 18.067 16.4643 15.8749 17.5834C17.1468 16.4405 18.5941 15.4081 21.0143 14.8626L20.7499 14.3334C17.6733 14.6232 15.3333 16.5001 15.3333 16.5001C15.3333 16.5001 12.5594 20.5225 12.0833 28.4167C14.8783 31.6413 19.1249 31.6667 19.1249 31.6667L20.0133 30.4837C18.5053 29.9594 16.8044 29.0239 15.3333 27.3334C17.0872 28.6605 19.7343 30.0417 23.9999 30.0417C28.2655 30.0417 30.9127 28.6605 32.6666 27.3334C31.196 29.0239 29.4951 29.9594 27.9866 30.4837L28.8749 31.6667C28.8749 31.6667 33.1216 31.6413 35.9166 28.4167C35.4405 20.5225 32.6666 16.5001 32.6666 16.5001ZM20.4791 26.2501C19.4315 26.2501 18.5833 25.2805 18.5833 24.0834C18.5833 22.8863 19.4315 21.9167 20.4791 21.9167C21.5267 21.9167 22.3749 22.8863 22.3749 24.0834C22.3749 25.2805 21.5267 26.2501 20.4791 26.2501ZM27.5208 26.2501C26.4732 26.2501 25.6249 25.2805 25.6249 24.0834C25.6249 22.8863 26.4732 21.9167 27.5208 21.9167C28.5683 21.9167 29.4166 22.8863 29.4166 24.0834C29.4166 25.2805 28.5683 26.2501 27.5208 26.2501Z" fill="white"/>
</svg>
