<svg width="88" height="88" viewBox="0 0 88 88" fill="none" xmlns="http://www.w3.org/2000/svg">
<g clip-path="url(#clip0_2_82)">
<mask id="mask0_2_82" style="mask-type:alpha" maskUnits="userSpaceOnUse" x="0" y="4" width="88" height="81">
<path d="M2.22815 53.1361L15.7052 76.5705V76.5417C17.1737 79.0792 19.2804 81.1861 21.815 82.6525C24.3496 84.1188 27.2233 84.8933 30.1496 84.8985H57.1207C60.0471 84.8938 62.9211 84.1196 65.4557 82.6532C67.9904 81.1868 70.097 79.0796 71.5652 76.5417L85.0421 53.1361C86.5019 50.593 87.2703 47.7104 87.2703 44.7764C87.2703 41.8424 86.5019 38.9598 85.0421 36.4168L71.5652 13.0112C70.0955 10.4708 67.9862 8.36188 65.4483 6.89534C62.9104 5.4288 60.0329 4.65606 57.1035 4.65442H30.1496C27.2233 4.65966 24.3496 5.43406 21.815 6.90039C19.2804 8.36672 17.1737 10.4737 15.7052 13.0112L2.22815 36.4168C0.768326 38.9598 0 41.8424 0 44.7764C0 47.7104 0.768326 50.593 2.22815 53.1361Z" fill="#00DC82"/>
</mask>
<g mask="url(#mask0_2_82)">
<path d="M2.22815 53.1361L15.7052 76.5705V76.5417C17.1737 79.0792 19.2804 81.1861 21.815 82.6525C24.3496 84.1188 27.2233 84.8933 30.1496 84.8985H57.1207C60.0471 84.8938 62.9211 84.1196 65.4557 82.6532C67.9904 81.1868 70.097 79.0796 71.5652 76.5417L85.0421 53.1361C86.5019 50.593 87.2703 47.7104 87.2703 44.7764C87.2703 41.8424 86.5019 38.9598 85.0421 36.4168L71.5652 13.0112C70.0955 10.4708 67.9862 8.36188 65.4483 6.89534C62.9104 5.4288 60.0329 4.65606 57.1035 4.65442H30.1496C27.2233 4.65966 24.3496 5.43406 21.815 6.90039C19.2804 8.36672 17.1737 10.4737 15.7052 13.0112L2.22815 36.4168C0.768326 38.9598 0 41.8424 0 44.7764C0 47.7104 0.768326 50.593 2.22815 53.1361Z" fill="#485EED"/>
<path opacity="0.3" d="M-9.40784 53.1379L4.06911 76.5723V76.5435C5.53777 79.081 7.64446 81.188 10.179 82.6543C12.7136 84.1206 15.5873 84.8951 18.5136 84.9003H45.4847C48.4111 84.8957 51.2851 84.1214 53.8197 82.655C56.3544 81.1887 58.461 79.0814 59.9292 76.5435L73.4061 53.1379C74.866 50.5948 75.6343 47.7122 75.6343 44.7782C75.6343 41.8442 74.866 38.9616 73.4061 36.4187L59.9292 13.013C58.4595 10.4726 56.3502 8.36371 53.8123 6.89718C51.2744 5.43063 48.3969 4.65789 45.4675 4.65625H18.5136C15.5873 4.66147 12.7136 5.43589 10.179 6.90223C7.64446 8.36855 5.53777 10.4755 4.06911 13.013L-9.40784 36.4187C-10.8677 38.9616 -11.636 41.8442 -11.636 44.7782C-11.636 47.7122 -10.8677 50.5948 -9.40784 53.1379Z" fill="white"/>
<path d="M48.0003 37.3606H39.6079L42.706 27.7399C42.9969 26.6133 42.1605 25.5015 41.0187 25.5015H30.5463C29.6736 25.5015 28.9318 26.1612 28.8154 27.0432L26.4882 44.8318C26.35 45.8992 27.1645 46.8479 28.2191 46.8479H36.8515L33.4989 61.2641C33.2371 62.3907 34.0807 63.4507 35.1934 63.4507C35.8043 63.4507 36.3861 63.1245 36.7061 62.5612L49.5057 40.0289C50.1821 38.8504 49.3457 37.3606 48.0003 37.3606Z" fill="#3049EB"/>
</g>
</g>
<defs>
<clipPath id="clip0_2_82">
<rect width="87.2703" height="87.2703" fill="white"/>
</clipPath>
</defs>
</svg>
