<svg width="150" height="30" viewBox="0 0 223 44" fill="none" xmlns="http://www.w3.org/2000/svg">
<!-- <path d="M63.7382 32.5278C68.8564 32.5278 72.8208 29.5101 73.6492 24.954H69.7144C69.0043 27.3504 66.7559 28.8888 63.8269 28.8888C59.8625 28.8888 57.3182 25.9303 57.3182 21.3446C57.3182 16.7293 59.8329 13.8299 63.8269 13.8299C66.6967 13.8299 68.8564 15.3092 69.596 17.8239H73.59C72.8504 13.1791 69.0339 10.191 63.9157 10.191C57.5844 10.191 53.3538 14.6583 53.3538 21.3742C53.3538 28.1492 57.4365 32.5278 63.7382 32.5278Z" fill="white"/>
<path d="M75.5364 24.8356C75.5364 29.3918 78.8204 32.5278 83.3469 32.5278C87.8735 32.5278 91.1574 29.3918 91.1574 24.8356C91.1574 20.2795 87.8735 17.1435 83.3469 17.1435C78.8204 17.1435 75.5364 20.2795 75.5364 24.8356ZM79.1458 24.8356C79.1458 22.173 80.8618 20.3683 83.3469 20.3683C85.8321 20.3683 87.548 22.173 87.548 24.8356C87.548 27.4983 85.8321 29.303 83.3469 29.303C80.8618 29.303 79.1458 27.4983 79.1458 24.8356Z" fill="white"/>
<path d="M95.7047 14.6287C96.8882 14.6287 97.8645 13.6524 97.8645 12.4394C97.8645 11.2264 96.8882 10.2797 95.7047 10.2797C94.4622 10.2797 93.4859 11.2264 93.4859 12.4394C93.4859 13.6524 94.4622 14.6287 95.7047 14.6287ZM93.9 32.1728H97.5094V17.5577H93.9V32.1728Z" fill="white"/>
<path d="M104.73 32.1728V24.3031C104.73 21.9363 106.091 20.3979 108.309 20.3979C110.173 20.3979 111.386 21.5813 111.386 24.0368V32.1728H114.996V23.1789C114.996 19.392 113.102 17.1139 109.434 17.1139C107.451 17.1139 105.676 17.9719 104.759 19.4511L104.463 17.5577H101.12V32.1728H104.73Z" fill="white"/>
<path d="M128.098 32.5278C133.216 32.5278 137.181 29.5101 138.009 24.954H134.074C133.364 27.3504 131.116 28.8888 128.187 28.8888C124.222 28.8888 121.678 25.9303 121.678 21.3446C121.678 16.7293 124.193 13.8299 128.187 13.8299C131.057 13.8299 133.216 15.3092 133.956 17.8239H137.95C137.21 13.1791 133.394 10.191 128.276 10.191C121.944 10.191 117.714 14.6583 117.714 21.3742C117.714 28.1492 121.796 32.5278 128.098 32.5278Z" fill="white"/>
<path d="M144.219 32.1728V24.1848C144.219 21.9955 145.55 20.3979 147.829 20.3979C149.663 20.3979 150.876 21.5813 150.876 24.0368V32.1728H154.485V23.1789C154.485 19.392 152.592 17.1139 148.982 17.1139C146.882 17.1139 145.166 18.031 144.249 19.4511V10.1614H140.61V32.1728H144.219Z" fill="white"/>
<path d="M162.262 32.5574C164.54 32.5574 166.522 31.5219 167.144 30.0131L167.41 32.1728H170.576V23.2972C170.576 19.244 168.15 17.1139 164.215 17.1139C160.25 17.1139 157.647 19.1849 157.647 22.3505H160.724C160.724 20.8121 161.907 19.9245 164.037 19.9245C165.872 19.9245 167.055 20.7233 167.055 22.7055V23.0309L162.676 23.3564C159.215 23.6226 157.262 25.309 157.262 28.0013C157.262 30.7527 159.156 32.5574 162.262 32.5574ZM163.446 29.8355C161.818 29.8355 160.931 29.1847 160.931 27.8533C160.931 26.6699 161.789 25.9303 164.037 25.7232L167.085 25.4865V26.2557C167.085 28.5042 165.665 29.8355 163.446 29.8355Z" fill="white"/>
<path d="M177.613 32.1728V24.3031C177.613 21.9363 178.973 20.3979 181.192 20.3979C183.056 20.3979 184.269 21.5813 184.269 24.0368V32.1728H187.879V23.1789C187.879 19.392 185.985 17.1139 182.317 17.1139C180.334 17.1139 178.559 17.9719 177.642 19.4511L177.346 17.5577H174.003V32.1728H177.613Z" fill="white"/>
<path d="M190.478 24.5398C190.478 28.7705 193.2 31.8769 197.342 31.8769C199.442 31.8769 201.247 31.0189 202.164 29.658V32.084C202.164 34.51 200.567 36.078 198.082 36.078C195.863 36.078 194.413 34.9538 194.176 33.0603H190.567C191.011 36.9656 193.88 39.362 198.082 39.362C202.815 39.362 205.744 36.3147 205.744 31.4331V17.5577H202.401L202.194 19.5695C201.336 18.0015 199.62 17.0843 197.431 17.0843C193.259 17.0843 190.478 20.2795 190.478 24.5398ZM194.117 24.451C194.117 22.0546 195.656 20.2499 198.052 20.2499C200.567 20.2499 202.076 21.9659 202.076 24.451C202.076 26.9954 200.537 28.7409 198.052 28.7409C195.685 28.7409 194.117 26.9066 194.117 24.451Z" fill="white"/>
<path d="M215.899 32.5574C219.716 32.5574 222.379 30.6343 223 27.4391H219.657C219.243 28.8296 217.941 29.5989 215.959 29.5989C213.562 29.5989 212.201 28.2971 211.935 25.7232L222.941 25.6936V24.599C222.941 20.0428 220.16 17.1139 215.781 17.1139C211.491 17.1139 208.503 20.2795 208.503 24.8652C208.503 29.3918 211.55 32.5574 215.899 32.5574ZM215.811 20.0724C217.97 20.0724 219.361 21.4038 219.361 23.4156H212.024C212.379 21.2262 213.681 20.0724 215.811 20.0724Z" fill="white"/> -->
<rect y="0.185059" width="43.2642" height="43.2642" rx="10.7622" fill="#485EED"/>
<path d="M34.3641 14.1986C33.8142 13.3447 32.8977 12.8161 32.0219 12.3078C29.3946 10.8236 26.7673 9.31905 24.1603 7.83485C23.4068 7.40789 22.6125 6.96059 21.7367 6.91993C20.698 6.87927 19.7204 7.40789 18.8039 7.93651C16.0544 9.50203 13.3252 11.0879 10.5757 12.6738C9.86285 13.0804 9.12964 13.5073 8.7223 14.1986C8.2946 14.9102 8.27424 15.8048 8.27424 16.6587C8.25387 19.7898 8.2335 22.9005 8.21313 26.0316C8.21313 27.2108 8.21313 28.4714 8.86487 29.4676C9.39441 30.2809 10.2702 30.7892 11.1256 31.2771C13.7936 32.7816 16.4617 34.3065 19.1501 35.811C19.8833 36.238 20.6776 36.665 21.533 36.665C22.4292 36.6853 23.2642 36.2177 24.0381 35.7704C26.7877 34.2048 29.5575 32.6393 32.3071 31.0738C33.1828 30.5858 34.0993 30.0369 34.5474 29.1626C34.9548 28.4104 34.9548 27.5158 34.9548 26.6822C34.9751 23.6731 34.9955 20.6844 34.9955 17.6753C35.0159 16.4758 34.9955 15.1949 34.3641 14.1986ZM14.0788 31.6431C13.1215 31.0738 12.1439 30.5045 11.1867 29.9149C10.6164 29.5693 10.0054 29.2033 9.67954 28.6137C9.35368 28.0241 9.33331 27.3125 9.33331 26.6415C9.33331 23.4291 9.33331 20.2371 9.33331 17.0247C9.33331 16.3741 9.33331 15.7032 9.59808 15.1339C9.98505 14.2596 10.8608 13.7513 11.6959 13.2837C14.425 11.7182 17.1542 10.1526 19.9037 8.60745C20.4129 8.3228 20.9628 8.01783 21.5534 7.9975C22.1644 7.97717 22.7347 8.28214 23.2846 8.56678C24.1196 9.01408 24.9547 9.46137 25.7897 9.90867C22.4699 11.7182 19.1705 13.5683 15.8914 15.4592C15.1175 15.9065 14.3232 16.3741 13.8751 17.1467C13.4881 17.777 13.4067 18.5496 13.3456 19.3018C13.2437 20.6031 13.203 21.9043 13.2641 23.2055C13.3456 25.198 13.8955 27.5971 16.1969 27.7801C16.8487 27.8411 17.5208 27.6988 18.1114 27.4141C20.8406 26.1739 24.6084 24.4051 24.8121 21.1927C24.9139 19.6678 24.3233 17.6956 25.6675 16.923C26.3192 16.5367 27.1543 16.6791 27.7449 17.1874C28.804 18.1226 28.8854 19.5255 28.9465 20.8267C29.0484 23.1242 28.9058 25.8893 26.8895 27.0278C24.1196 28.5933 21.3701 30.1589 18.6002 31.7447C17.9688 32.1107 17.2967 32.4767 16.5635 32.497C15.647 32.558 14.8323 32.0904 14.0788 31.6431ZM19.5371 25.1573C19.5371 24.2627 19.5574 23.3478 19.5778 22.4532C19.5982 21.8636 19.6185 21.2333 19.924 20.7047C20.6369 19.4238 22.4495 18.8545 23.8141 18.2853C23.8956 19.9321 23.9363 21.213 23.1827 22.5752C22.4292 23.9171 21.1461 24.3847 19.5371 25.1573ZM33.305 28.7763C32.8773 29.4066 32.1849 29.7929 31.5331 30.1792C29.028 31.6227 26.5229 33.0663 24.0178 34.5098C23.0809 35.0588 22.0422 35.6077 20.9628 35.4247C19.6389 35.2011 18.7224 33.8999 17.4189 33.6152C20.2907 32.0294 23.1827 30.4232 26.0545 28.8373C26.971 28.329 27.9078 27.8004 28.5799 27.0278C30.0871 25.2996 30.0464 22.7379 29.9038 20.4607C29.7816 18.3869 29.3335 15.8251 26.9099 15.6625C26.1767 15.6218 25.4231 15.8251 24.7917 16.2114C23.4271 17.045 22.0422 17.8786 20.6776 18.6919C19.8426 19.2002 18.9464 19.7491 18.5391 20.6437C18.0503 21.6806 18.3354 22.8802 18.3762 24.0391C18.4169 25.2996 17.8874 26.8245 16.5228 26.8448C15.9525 26.8652 15.423 26.5602 15.0564 26.1129C14.3028 25.1777 14.3232 23.9781 14.3435 22.8599C14.3639 21.7823 14.3843 20.6844 14.425 19.6068C14.4454 18.9969 14.4657 18.3666 14.7712 17.838C15.0971 17.289 15.6674 16.9434 16.2173 16.6181C18.9872 15.0119 21.7367 13.3854 24.5066 11.7792C25.1176 11.4132 25.7693 11.0472 26.5025 11.0066C27.419 10.9456 28.2541 11.4335 29.028 11.9012C30.0056 12.4908 31.0036 13.0804 31.9812 13.67C32.5515 13.9953 33.1217 14.3613 33.468 14.9102C33.8549 15.5405 33.8753 16.3334 33.8753 17.0857C33.8957 19.9524 33.8957 22.8192 33.916 25.6656C33.9364 26.7432 33.916 27.9021 33.305 28.7763Z" fill="white"/>
</svg>
